<svg width="24" height="24" viewBox="0 0 24 24" fill="none" xmlns="http://www.w3.org/2000/svg">
<path d="M4.5164 21.5C4.77369 17.591 8.02588 14.5 12 14.5C15.9741 14.5 19.2263 17.591 19.4836 21.5H18.4811C18.2257 18.1438 15.4216 15.5 12 15.5C8.57838 15.5 5.77426 18.1438 5.51894 21.5H4.5164ZM12 12.5C8.96114 12.5 6.5 10.0389 6.5 7C6.5 3.96114 8.96114 1.5 12 1.5C15.0389 1.5 17.5 3.96114 17.5 7C17.5 10.0389 15.0389 12.5 12 12.5ZM12 11.5C14.4861 11.5 16.5 9.48614 16.5 7C16.5 4.51386 14.4861 2.5 12 2.5C9.51386 2.5 7.5 4.51386 7.5 7C7.5 9.48614 9.51386 11.5 12 11.5Z" fill="black" stroke="#62CDFA"/>
</svg>
