<svg width="375" height="156" viewBox="0 0 375 156" fill="none" xmlns="http://www.w3.org/2000/svg">
<path opacity="0.4" d="M178.5 35.6945C107.341 61.8051 45.1835 -21.2352 -14.4017 5.30341C-49.9813 13.8643 -121.826 31.9277 -124.57 35.6945C-127.313 39.4612 -130 122.873 -131 164.107L397.551 251C433.559 206.626 495.373 105.209 454.564 54.5283C403.552 -8.82201 249.659 9.58384 178.5 35.6945Z" fill="white" fill-opacity="0.41"/>
<path opacity="0.4" d="M244.069 50.424C185.549 75.8111 91.2281 35.6168 44.5359 64.6542C15.844 75.8084 -6.58101 80.0401 -8.44759 83.5372C-10.3142 87.0344 -3.26785 158.131 0.488642 193.242L450.547 209.251C475.61 167.65 515.825 74.8091 476.181 36.2484C426.627 -11.9524 303.202 24.771 244.069 50.424Z" fill="white" fill-opacity="0.41"/>
</svg>
